# xmcd
# Track frame offsets:
# 150
# 17966
# 34563
# 53464
# 78070
# 101618
# 121434
# 138792
#
# Disc length: 2256 seconds
# Revision: 0
# Processed by: cddbd v1.5.1PL0 Copyright (c) Steve Scherf et al.
# Submitted via: VisiTrax 2.9.10.228 - For more info visit www.synapsa.com
#
DISCID=5508ce08
DTITLE=Janis Joplin - I Got Dem Ol' Kozmic Blues Again Mama!
DYEAR=1900
DGENRE=Misc
TTITLE0=Try (Just a Little Bit Harder)
TTITLE1=Maybe
TTITLE2=One Good Man
TTITLE3=As Good as You've Been to This World
TTITLE4=To Love Somebody
TTITLE5=Kozmic Blues
TTITLE6=Little Girl Blue
TTITLE7=Work Me, Lord
EXTD=
EXTT0=
EXTT1=
EXTT2=
EXTT3=
EXTT4=
EXTT5=
EXTT6=
EXTT7=
PLAYORDER=
